<svg width="299" height="49" viewBox="0 0 299 49" fill="none" xmlns="http://www.w3.org/2000/svg">
<path d="M289.376 15.3921C290.784 15.3921 292.054 15.5414 293.184 15.8401C294.336 16.1388 295.531 16.5974 296.768 17.2161L297.696 25.8241H296.64L292.672 17.2161L295.104 20.0641C294.016 18.9334 293.003 18.1334 292.064 17.6641C291.126 17.1734 290.006 16.9281 288.704 16.9281C286.891 16.9281 285.472 17.3441 284.448 18.1761C283.446 19.0081 282.944 20.2134 282.944 21.7921C282.944 22.6881 283.126 23.5094 283.488 24.2561C283.872 24.9814 284.587 25.6961 285.632 26.4001C286.699 27.0828 288.267 27.8401 290.336 28.6721C291.872 29.2694 293.163 29.9201 294.208 30.6241C295.275 31.3281 296.118 32.0854 296.736 32.8961C297.376 33.7068 297.835 34.5921 298.112 35.5521C298.39 36.5121 298.528 37.5574 298.528 38.6881C298.528 40.6721 297.984 42.4108 296.896 43.9041C295.83 45.3974 294.4 46.5601 292.608 47.3921C290.816 48.2241 288.854 48.6401 286.72 48.6401C285.142 48.6401 283.723 48.4908 282.464 48.1921C281.227 47.8934 280.022 47.4454 278.848 46.8481L277.088 37.1201H278.272L283.424 47.1361L281.504 45.3441C282.08 45.7281 282.667 46.0481 283.264 46.3041C283.862 46.5601 284.47 46.7521 285.088 46.8801C285.728 47.0081 286.358 47.0721 286.976 47.0721C288.811 47.0721 290.432 46.5708 291.84 45.5681C293.248 44.5441 293.952 42.9974 293.952 40.9281C293.952 40.1174 293.814 39.3814 293.536 38.7201C293.259 38.0374 292.811 37.4081 292.192 36.8321C291.595 36.2348 290.795 35.6694 289.792 35.1361C288.811 34.5814 287.595 34.0374 286.144 33.5041C284.224 32.7361 282.699 31.8934 281.568 30.9761C280.459 30.0588 279.659 29.0348 279.168 27.9041C278.678 26.7521 278.432 25.4614 278.432 24.0321C278.432 22.1761 278.934 20.6081 279.936 19.3281C280.96 18.0481 282.294 17.0774 283.936 16.4161C285.6 15.7334 287.414 15.3921 289.376 15.3921Z" fill="black"/>
<path d="M250.313 21.28V46.048L254.953 47.104V48H240.009V47.104L244.617 46.048V21.472C244.276 21.2373 243.785 20.928 243.145 20.544C242.505 20.16 241.46 19.5413 240.009 18.688V18.08L249.961 15.104H250.185L250.313 21.28ZM260.361 47.104L265.001 46.048V26.272C265.001 24.8853 264.756 23.7227 264.265 22.784C263.774 21.8453 263.017 21.1413 261.993 20.672C260.969 20.1813 259.668 19.936 258.089 19.936C256.404 19.936 254.804 20.1813 253.289 20.672C251.774 21.1413 250.548 21.6533 249.609 22.208L249.097 21.472C250.676 20.2347 252.062 19.2213 253.257 18.432C254.452 17.6427 255.529 17.0347 256.489 16.608C257.449 16.16 258.366 15.8507 259.241 15.68C260.116 15.488 261.054 15.392 262.057 15.392C265.108 15.392 267.316 16.2347 268.681 17.92C270.046 19.584 270.729 22.2293 270.729 25.856V46.048L275.337 47.104V48H260.361V47.104Z" fill="black"/>
<path d="M221.797 47.0721C223.802 47.0721 225.498 46.5174 226.885 45.4081C228.271 44.2988 229.317 42.6348 230.021 40.4161C230.746 38.1974 231.109 35.4454 231.109 32.1601C231.109 28.8321 230.757 26.0481 230.053 23.8081C229.349 21.5468 228.314 19.8401 226.949 18.6881C225.583 17.5361 223.909 16.9601 221.925 16.9601C219.941 16.9601 218.255 17.5254 216.869 18.6561C215.482 19.7654 214.426 21.4294 213.701 23.6481C212.997 25.8454 212.645 28.5868 212.645 31.8721C212.645 35.1788 212.997 37.9628 213.701 40.2241C214.405 42.4854 215.439 44.1921 216.805 45.3441C218.17 46.4961 219.834 47.0721 221.797 47.0721ZM221.733 48.6401C218.853 48.6401 216.25 47.9361 213.925 46.5281C211.599 45.1201 209.743 43.1681 208.357 40.6721C206.991 38.1548 206.309 35.2748 206.309 32.0321C206.309 28.7894 207.013 25.9201 208.421 23.4241C209.829 20.9068 211.717 18.9441 214.085 17.5361C216.453 16.1068 219.098 15.3921 222.021 15.3921C224.943 15.3921 227.567 16.1068 229.893 17.5361C232.218 18.9441 234.053 20.8961 235.397 23.3921C236.762 25.8668 237.445 28.7361 237.445 32.0001C237.445 35.2641 236.73 38.1548 235.301 40.6721C233.871 43.1681 231.962 45.1201 229.573 46.5281C227.205 47.9361 224.591 48.6401 221.733 48.6401Z" fill="black"/>
<path d="M196.203 9.63208C194.881 9.63208 193.835 9.19475 193.067 8.32008C192.299 7.42408 191.915 6.41075 191.915 5.28008C191.915 4.17075 192.299 3.21075 193.067 2.40008C193.835 1.58942 194.881 1.18408 196.203 1.18408C197.505 1.18408 198.518 1.58942 199.243 2.40008C199.99 3.21075 200.363 4.17075 200.363 5.28008C200.363 6.41075 199.99 7.42408 199.243 8.32008C198.518 9.19475 197.505 9.63208 196.203 9.63208ZM199.563 15.1041L199.531 21.1841V46.0481L204.171 47.1041V48.0001H189.195V47.1041L193.835 46.0481V21.4081C193.601 21.2374 193.238 21.0027 192.747 20.7041C192.278 20.4054 191.734 20.0747 191.115 19.7121C190.518 19.3281 189.889 18.9547 189.227 18.5921V17.9521L199.371 15.1041H199.563Z" fill="black"/>
<path d="M177.165 39.712C177.165 41.2694 177.656 42.4427 178.637 43.232C179.619 44.0214 180.909 44.416 182.509 44.416C183.427 44.416 184.387 44.3307 185.389 44.16C186.392 43.9894 187.555 43.712 188.877 43.328V44.32C187 45.4507 185.464 46.3254 184.269 46.944C183.096 47.5627 182.083 48 181.229 48.256C180.376 48.512 179.48 48.64 178.541 48.64C177.304 48.64 176.141 48.3734 175.053 47.84C173.987 47.2854 173.123 46.4107 172.461 45.216C171.8 44.0214 171.469 42.464 171.469 40.544V20.192L167.501 17.696V17.216C167.757 17.0454 168.099 16.8214 168.525 16.544C168.952 16.2667 169.443 15.936 169.997 15.552C170.573 15.168 171.213 14.7414 171.917 14.272C172.643 13.8027 173.411 13.3014 174.221 12.768C175.032 12.2134 175.885 11.648 176.781 11.072H177.165V17.184V39.712ZM175.213 19.424V16.032H187.949L187.437 19.424H175.213Z" fill="black"/>
<path d="M156.724 15.3921C158.73 15.3921 160.362 15.6054 161.62 16.0321C162.9 16.4588 163.839 17.0134 164.436 17.6961C165.034 18.3788 165.332 19.1148 165.332 19.9041C165.332 20.5654 165.194 21.1414 164.916 21.6321C164.66 22.1014 164.298 22.4641 163.828 22.7201C163.359 22.9761 162.783 23.1041 162.1 23.1041C161.866 23.1041 161.556 22.9121 161.172 22.5281C160.81 22.1228 160.372 21.6321 159.86 21.0561C159.348 20.4801 158.772 19.9041 158.132 19.3281C157.514 18.7308 156.852 18.2401 156.148 17.8561C155.444 17.4508 154.698 17.2481 153.908 17.2481C152.415 17.2481 151.071 17.6854 149.876 18.5601C148.703 19.4348 147.775 20.7681 147.092 22.5601C146.431 24.3521 146.1 26.6561 146.1 29.4721C146.1 32.8854 146.527 35.6801 147.38 37.8561C148.234 40.0321 149.482 41.6321 151.124 42.6561C152.767 43.6588 154.794 44.1601 157.204 44.1601C158.826 44.1601 160.394 43.8294 161.908 43.1681C163.423 42.4854 164.703 41.4508 165.748 40.0641L166.26 40.5121C165.044 42.4961 163.807 44.0854 162.548 45.2801C161.29 46.4748 159.967 47.3388 158.58 47.8721C157.215 48.3841 155.722 48.6401 154.1 48.6401C151.476 48.6401 149.108 48.0214 146.996 46.7841C144.906 45.5468 143.252 43.7441 142.036 41.3761C140.82 38.9868 140.212 36.0748 140.212 32.6401C140.212 30.1441 140.618 27.8508 141.428 25.7601C142.239 23.6694 143.38 21.8561 144.852 20.3201C146.324 18.7628 148.063 17.5574 150.068 16.7041C152.095 15.8294 154.314 15.3921 156.724 15.3921Z" fill="black"/>
<path d="M125.374 15.3921C127.593 15.3921 129.523 15.8614 131.166 16.8001C132.809 17.7174 134.11 19.0828 135.07 20.8961C136.051 22.6881 136.638 24.8961 136.83 27.5201H115.87L115.902 25.6321L133.374 25.5041L130.942 26.7841C130.729 24.6081 130.355 22.8054 129.822 21.3761C129.289 19.9468 128.585 18.8801 127.71 18.1761C126.835 17.4721 125.758 17.1201 124.478 17.1201C122.793 17.1201 121.331 17.6108 120.094 18.5921C118.878 19.5521 117.939 20.9708 117.278 22.8481C116.638 24.7041 116.318 26.9548 116.318 29.6001C116.318 32.9921 116.777 35.7654 117.694 37.9201C118.633 40.0748 119.977 41.6534 121.726 42.6561C123.475 43.6588 125.598 44.1601 128.094 44.1601C129.225 44.1601 130.323 44.0108 131.39 43.7121C132.478 43.4134 133.502 42.9654 134.462 42.3681C135.422 41.7494 136.254 40.9814 136.958 40.0641L137.502 40.5121C136.222 42.4961 134.931 44.0854 133.63 45.2801C132.329 46.4748 130.963 47.3388 129.534 47.8721C128.105 48.3841 126.547 48.6401 124.862 48.6401C122.131 48.6401 119.667 48.0214 117.47 46.7841C115.294 45.5468 113.577 43.7334 112.318 41.3441C111.059 38.9334 110.43 36.0108 110.43 32.5761C110.43 29.4614 111.017 26.6028 112.19 24.0001C113.363 21.3974 115.07 19.3174 117.31 17.7601C119.55 16.1814 122.238 15.3921 125.374 15.3921Z" fill="black"/>
<path d="M103.609 46.048L108.249 47.104V48H93.273V47.104L97.913 46.048V6.36803C97.6357 6.2187 97.241 6.0267 96.729 5.79203C96.2383 5.53603 95.6517 5.2587 94.969 4.96003C94.3077 4.64003 93.561 4.28803 92.729 3.90403V3.32803L103.449 0.832031H103.673L103.609 6.33603V46.048Z" fill="black"/>
<path d="M87.764 46.048L92.404 47.104V48H77.428V47.104L82.068 46.048V6.36803C81.7907 6.2187 81.396 6.0267 80.884 5.79203C80.3934 5.53603 79.8067 5.2587 79.124 4.96003C78.4627 4.64003 77.716 4.28803 76.884 3.90403V3.32803L87.604 0.832031H87.828L87.764 6.33603V46.048Z" fill="black"/>
<path d="M59.6316 47.0721C61.6369 47.0721 63.3329 46.5174 64.7196 45.4081C66.1062 44.2988 67.1516 42.6348 67.8556 40.4161C68.5809 38.1974 68.9436 35.4454 68.9436 32.1601C68.9436 28.8321 68.5916 26.0481 67.8876 23.8081C67.1836 21.5468 66.1489 19.8401 64.7836 18.6881C63.4182 17.5361 61.7436 16.9601 59.7596 16.9601C57.7756 16.9601 56.0902 17.5254 54.7036 18.6561C53.3169 19.7654 52.2609 21.4294 51.5356 23.6481C50.8316 25.8454 50.4796 28.5868 50.4796 31.8721C50.4796 35.1788 50.8316 37.9628 51.5356 40.2241C52.2396 42.4854 53.2742 44.1921 54.6396 45.3441C56.0049 46.4961 57.6689 47.0721 59.6316 47.0721ZM59.5676 48.6401C56.6876 48.6401 54.0849 47.9361 51.7596 46.5281C49.4342 45.1201 47.5782 43.1681 46.1916 40.6721C44.8262 38.1548 44.1436 35.2748 44.1436 32.0321C44.1436 28.7894 44.8476 25.9201 46.2556 23.4241C47.6636 20.9068 49.5516 18.9441 51.9196 17.5361C54.2876 16.1068 56.9329 15.3921 59.8556 15.3921C62.7782 15.3921 65.4022 16.1068 67.7276 17.5361C70.0529 18.9441 71.8876 20.8961 73.2316 23.3921C74.5969 25.8668 75.2796 28.7361 75.2796 32.0001C75.2796 35.2641 74.5649 38.1548 73.1356 40.6721C71.7062 43.1681 69.7969 45.1201 67.4076 46.5281C65.0396 47.9361 62.4262 48.6401 59.5676 48.6401Z" fill="black"/>
<path d="M25.868 47.232C27.4893 47.232 29.1213 46.9333 30.764 46.336C32.428 45.7173 34.092 44.7146 35.756 43.328L34.476 44.768L39.884 35.648H40.844L38.54 46.752C36.364 47.4773 34.284 47.968 32.3 48.224C30.3373 48.5013 28.204 48.64 25.9 48.64C22.38 48.64 19.1053 48.1493 16.076 47.168C13.0466 46.1653 10.3906 44.672 8.10798 42.688C5.82531 40.704 4.04398 38.24 2.76398 35.296C1.50531 32.3306 0.875977 28.9066 0.875977 25.024C0.875977 20.4373 1.88931 16.4266 3.91598 12.992C5.96398 9.53598 8.80131 6.84798 12.428 4.92798C16.076 2.98665 20.3 2.01598 25.1 2.01598C26.8066 2.01598 28.46 2.12265 30.06 2.33598C31.66 2.54931 33.356 2.86931 35.148 3.29598L33.452 3.64798L37.036 0.927979H37.484L40.204 16.416L39.308 16.544L33.228 5.98398L34.508 7.32798C32.588 6.06931 30.7533 5.15198 29.004 4.57598C27.276 3.99998 25.484 3.71198 23.628 3.71198C21.4306 3.71198 19.3613 4.07465 17.42 4.79998C15.5 5.52531 13.7933 6.68798 12.3 8.28798C10.828 9.88798 9.66531 11.9893 8.81198 14.592C7.97998 17.1946 7.56398 20.384 7.56398 24.16C7.56398 28.1493 8.04398 31.5946 9.00398 34.496C9.98531 37.3973 11.3186 39.7973 13.004 41.696C14.7106 43.5733 16.6626 44.9706 18.86 45.888C21.0573 46.784 23.3933 47.232 25.868 47.232Z" fill="black"/>
</svg>
